<svg viewBox="0 0 512 512" xmlns="http://www.w3.org/2000/svg" fill-rule="evenodd" clip-rule="evenodd" stroke-linejoin="round" stroke-miterlimit="2"><path d="M501 123.988v-81.85c-.02-3.839-3.184-7.003-7.023-7.003-1.225 0-2.409.327-3.47.919l-53.9 30.788c-4.37 2.49-7.065 7.166-7.065 12.189v81.85c0 5.39 5.82 8.78 10.495 6.084l53.9-30.788a14.08 14.08 0 007.064-12.21v.021zM21.516 36.074l156.044 89.486a14.084 14.084 0 0013.965 0L347.57 36.074a6.992 6.992 0 013.492-.94c3.858 0 7.023 3.165 7.023 7.024v245.613c0 4.798-2.45 9.249-6.513 11.842l-94.938 60.29 63.496 37.404a14.027 14.027 0 0014.557-.184l94.121-58.76a7.067 7.067 0 003.287-5.961V249a14.07 14.07 0 017.391-12.373l51.185-27.48a6.92 6.92 0 013.307-.838c3.86 0 7.024 3.165 7.024 7.024V369.09c0 4.981-2.654 9.596-6.942 12.107L334.115 474.95a14.052 14.052 0 01-14.496-.183l-121.54-75.154a7.067 7.067 0 01-3.329-5.982v-73.99a7.003 7.003 0 013.124-5.84l82.484-55.002a14.048 14.048 0 006.267-11.679v-89.629a2.815 2.815 0 00-2.797-2.797c-.51 0-1.02.143-1.45.408l-90.65 54.39a14.051 14.051 0 01-14.393.041l-91.916-54.471a2.883 2.883 0 00-1.43-.388c-1.53 0-2.796 1.265-2.817 2.797v161.965c0 3.839-3.185 7.003-7.023 7.003a6.94 6.94 0 01-3.593-.98l-49.348-29.604A21.056 21.056 0 0111 277.808V42.158c0-5.39 5.84-8.779 10.515-6.084z" fill="#0073e6"/></svg>